<svg width="56" height="57" viewBox="0 0 56 57" fill="none" xmlns="http://www.w3.org/2000/svg">
<path d="M28 56.5C43.464 56.5 56 43.964 56 28.5C56 13.036 43.464 0.5 28 0.5C12.536 0.5 0 13.036 0 28.5C0 43.964 12.536 56.5 28 56.5Z" fill="url(#paint0_linear_271_203)"/>
<path d="M23.5537 12.2432C23.1225 12.2432 22.7977 12.4616 22.5793 12.8928L19.6505 18.6384C19.0009 20.0496 17.4833 20.912 15.9657 20.912H12.7121C11.5193 20.912 10.5449 21.8864 10.5449 23.0792V28.5C10.5449 29.6928 11.5193 30.6672 12.7121 30.6672H14.1233L15.4225 40.316C15.7473 42.808 17.9145 44.7624 20.5185 44.7624H35.4761C38.0801 44.7624 40.1353 42.92 40.5721 40.316L41.8713 30.6672H43.2825C44.4753 30.6672 45.4497 29.6928 45.4497 28.5V23.0792C45.4497 21.8864 44.4753 20.912 43.2825 20.912H39.8161C38.1921 20.912 36.7809 20.044 36.1313 18.6384L33.2025 12.8928C32.9841 12.568 32.6593 12.2432 32.2281 12.2432C32.0097 12.2432 31.9033 12.2432 31.7969 12.3496C31.2537 12.568 31.0409 13.2176 31.3657 13.7608L33.7513 18.532C34.2945 19.6184 33.5329 20.9176 32.3401 20.9176H23.5593C22.3665 20.9176 21.6105 19.6184 22.1481 18.532L24.5337 13.7608C24.7521 13.2176 24.5337 12.568 24.1025 12.3496C23.8841 12.2432 23.7777 12.2432 23.5593 12.2432H23.5537ZM39.0545 33.7024C38.4049 38.7984 30.9233 42.5896 25.7209 42.5896H22.5793C19.8689 42.5896 17.5953 40.5288 17.1585 37.8184L16.6153 33.5904C16.3969 31.9664 17.5897 30.5552 19.2193 30.5552H36.3441C38.0801 30.6616 39.2729 32.0728 39.0545 33.6968V33.7024ZM31.1417 28.5H15.4281C13.9105 28.5 12.7177 27.3072 12.7177 25.7896C12.7177 24.272 13.9105 23.0792 15.4281 23.0792H17.3769C18.8945 23.0792 19.5441 24.1656 20.5185 24.1656C21.4929 24.1656 22.2545 23.1912 23.6601 23.0792H32.4409C33.9585 23.0792 34.6081 24.1656 35.5825 24.1656C36.5569 24.1656 37.3185 23.1912 38.7241 23.0792H39.8105C41.1097 23.0792 42.1961 23.9472 42.1961 25.2464C42.1961 27.632 34.6081 28.5 31.1417 28.5Z" fill="white"/>
<defs>
<linearGradient id="paint0_linear_271_203" x1="5.1688" y1="39.672" x2="51.0552" y2="17.216" gradientUnits="userSpaceOnUse">
<stop offset="0.02" stop-color="#005BCC"/>
<stop offset="0.29" stop-color="#004FB2"/>
<stop offset="1" stop-color="#003274"/>
</linearGradient>
</defs>
</svg>
