<svg width="23" height="20" viewBox="0 0 23 20" fill="none" xmlns="http://www.w3.org/2000/svg">
<path d="M21.4286 8.57143C21.8229 8.57143 22.1596 8.71094 22.4386 8.98996C22.7176 9.26897 22.8571 9.60566 22.8571 10C22.8571 10.3943 22.7176 10.731 22.4386 11.01C22.1596 11.2891 21.8229 11.4286 21.4286 11.4286H21.2612L19.9777 18.817C19.9182 19.1592 19.7545 19.442 19.4866 19.6652C19.2188 19.8884 18.9137 20 18.5714 20H4.28571C3.94345 20 3.63839 19.8884 3.37054 19.6652C3.10268 19.442 2.93899 19.1592 2.87946 18.817L1.59598 11.4286H1.42857C1.03423 11.4286 0.697545 11.2891 0.418527 11.01C0.139509 10.731 0 10.3943 0 10C0 9.60566 0.139509 9.26897 0.418527 8.98996C0.697545 8.71094 1.03423 8.57143 1.42857 8.57143H21.4286ZM5.41295 17.5C5.6064 17.4851 5.76823 17.4014 5.89844 17.2489C6.02865 17.0964 6.08631 16.9234 6.07143 16.7299L5.71429 12.0871C5.6994 11.8936 5.6157 11.7318 5.46317 11.6016C5.31064 11.4714 5.13765 11.4137 4.9442 11.4286C4.75074 11.4435 4.58891 11.5272 4.45871 11.6797C4.3285 11.8322 4.27083 12.0052 4.28571 12.1987L4.64286 16.8415C4.65774 17.0275 4.734 17.1838 4.87165 17.3103C5.0093 17.4368 5.17113 17.5 5.35714 17.5H5.41295ZM10 16.7857V12.1429C10 11.9494 9.92932 11.782 9.78795 11.6406C9.64658 11.4993 9.47917 11.4286 9.28571 11.4286C9.09226 11.4286 8.92485 11.4993 8.78348 11.6406C8.64211 11.782 8.57143 11.9494 8.57143 12.1429V16.7857C8.57143 16.9792 8.64211 17.1466 8.78348 17.2879C8.92485 17.4293 9.09226 17.5 9.28571 17.5C9.47917 17.5 9.64658 17.4293 9.78795 17.2879C9.92932 17.1466 10 16.9792 10 16.7857ZM14.2857 16.7857V12.1429C14.2857 11.9494 14.215 11.782 14.0737 11.6406C13.9323 11.4993 13.7649 11.4286 13.5714 11.4286C13.378 11.4286 13.2106 11.4993 13.0692 11.6406C12.9278 11.782 12.8571 11.9494 12.8571 12.1429V16.7857C12.8571 16.9792 12.9278 17.1466 13.0692 17.2879C13.2106 17.4293 13.378 17.5 13.5714 17.5C13.7649 17.5 13.9323 17.4293 14.0737 17.2879C14.215 17.1466 14.2857 16.9792 14.2857 16.7857ZM18.2143 16.8415L18.5714 12.1987C18.5863 12.0052 18.5286 11.8322 18.3984 11.6797C18.2682 11.5272 18.1064 11.4435 17.9129 11.4286C17.7195 11.4137 17.5465 11.4714 17.394 11.6016C17.2414 11.7318 17.1577 11.8936 17.1429 12.0871L16.7857 16.7299C16.7708 16.9234 16.8285 17.0964 16.9587 17.2489C17.0889 17.4014 17.2507 17.4851 17.4442 17.5H17.5C17.686 17.5 17.8478 17.4368 17.9855 17.3103C18.1231 17.1838 18.1994 17.0275 18.2143 16.8415ZM5.3125 3.25893L4.27455 7.85714H2.80134L3.92857 2.93527C4.06994 2.28051 4.40104 1.74665 4.92188 1.33371C5.44271 0.920759 6.03795 0.714286 6.70759 0.714286H8.57143C8.57143 0.520833 8.64211 0.353423 8.78348 0.212054C8.92485 0.0706845 9.09226 0 9.28571 0H13.5714C13.7649 0 13.9323 0.0706845 14.0737 0.212054C14.215 0.353423 14.2857 0.520833 14.2857 0.714286H16.1496C16.8192 0.714286 17.4144 0.920759 17.9353 1.33371C18.4561 1.74665 18.7872 2.28051 18.9286 2.93527L20.0558 7.85714H18.5826L17.5446 3.25893C17.4628 2.93155 17.2935 2.66369 17.0368 2.45536C16.7801 2.24702 16.4844 2.14286 16.1496 2.14286H14.2857C14.2857 2.33631 14.215 2.50372 14.0737 2.64509C13.9323 2.78646 13.7649 2.85714 13.5714 2.85714H9.28571C9.09226 2.85714 8.92485 2.78646 8.78348 2.64509C8.64211 2.50372 8.57143 2.33631 8.57143 2.14286H6.70759C6.37277 2.14286 6.07701 2.24702 5.82031 2.45536C5.56362 2.66369 5.39435 2.93155 5.3125 3.25893Z" fill="black"/>
</svg>
