<svg width="30" height="30" viewBox="0 0 30 30" fill="none" xmlns="http://www.w3.org/2000/svg">
<g id="Group">
<path id="Vector" fill-rule="evenodd" clip-rule="evenodd" d="M15.0001 16.7675L22.0714 23.8388C22.3071 24.0664 22.6229 24.1924 22.9506 24.1896C23.2784 24.1867 23.5919 24.0553 23.8237 23.8235C24.0554 23.5918 24.1869 23.2782 24.1897 22.9505C24.1926 22.6228 24.0666 22.307 23.8389 22.0713L16.7676 15L23.8389 7.92875C24.0666 7.693 24.1926 7.37725 24.1897 7.0495C24.1869 6.72176 24.0554 6.40824 23.8237 6.17648C23.5919 5.94472 23.2784 5.81326 22.9506 5.81041C22.6229 5.80756 22.3071 5.93356 22.0714 6.16125L15.0001 13.2325L7.92889 6.16125C7.69208 5.93918 7.37816 5.81796 7.05356 5.82323C6.72895 5.8285 6.41914 5.95986 6.18966 6.1895C5.96018 6.41914 5.82904 6.72905 5.824 7.05366C5.81896 7.37826 5.94041 7.6921 6.16264 7.92875L13.2326 15L6.1614 22.0713C6.04201 22.1866 5.94678 22.3245 5.88127 22.477C5.81576 22.6295 5.78127 22.7935 5.77983 22.9595C5.77839 23.1255 5.81002 23.2901 5.87287 23.4437C5.93572 23.5973 6.02854 23.7369 6.1459 23.8542C6.26327 23.9716 6.40283 24.0644 6.55645 24.1273C6.71007 24.1901 6.87467 24.2218 7.04065 24.2203C7.20662 24.2189 7.37065 24.1844 7.52315 24.1189C7.67566 24.0534 7.81359 23.9581 7.92889 23.8388L15.0001 16.7675Z" fill="black"/>
</g>
</svg>
