<svg width="16" height="16" viewBox="0 0 16 16" fill="none" xmlns="http://www.w3.org/2000/svg">
<path fill-rule="evenodd" clip-rule="evenodd" d="M10.8351 0.50411C11.1579 0.181328 11.5958 0 12.0524 0C12.5089 0 12.9468 0.181328 13.2696 0.50411L15.4959 2.73035C15.8187 3.05323 16 3.49109 16 3.94764C16 4.40419 15.8187 4.84205 15.4959 5.16493L14.1305 6.53029L9.46971 1.86947L10.8351 0.50411ZM8.25242 3.08676L0.504477 10.8347C0.181561 11.1575 9.75163e-05 11.5954 0 12.052V14.2782C0 14.7349 0.1814 15.1728 0.504293 15.4957C0.827187 15.8186 1.26512 16 1.72177 16H3.94801C4.40461 15.9999 4.84248 15.8184 5.1653 15.4955L12.9132 7.74758L8.25242 3.08676Z" fill="black"/>
</svg>
