<svg width="20" height="20" viewBox="0 0 20 20" fill="none" xmlns="http://www.w3.org/2000/svg">
<path d="M10 19.3333C8.05979 19.3333 6.16783 18.7286 4.58724 17.6034C3.00666 16.4781 1.81604 14.8883 1.18097 13.055C0.545906 11.2216 0.497971 9.23596 1.04383 7.37413C1.5897 5.51229 2.70222 3.86685 4.22667 2.66666M10 0.666656C11.9402 0.666692 13.8322 1.27138 15.4128 2.39661C16.9933 3.52185 18.184 5.11169 18.819 6.94502C19.4541 8.77835 19.502 10.764 18.9562 12.6259C18.4103 14.4877 17.2978 16.1331 15.7733 17.3333M15.3333 13.3333V18H20M0 1.99999H4.66667V6.66666" stroke="black"/>
</svg>
